<?xml version="1.0" standalone="no"?>
<!DOCTYPE svg PUBLIC "-//W3C//DTD SVG 20010904//EN"
 "http://www.w3.org/TR/2001/REC-SVG-20010904/DTD/svg10.dtd">
<svg version="1.0" xmlns="http://www.w3.org/2000/svg"
 width="512.000000pt" height="512.000000pt" viewBox="0 0 512.000000 512.000000"
 preserveAspectRatio="xMidYMid meet">

<g transform="translate(0.000000,512.000000) scale(0.100000,-0.100000)"
fill="#000000" stroke="none">
<path d="M1120 4947 c-49 -16 -133 -102 -148 -153 -7 -23 -12 -78 -12 -124 l0
-82 -201 -241 -201 -240 4 -141 c3 -133 5 -145 35 -208 17 -37 50 -87 73 -112
52 -56 160 -112 235 -121 l55 -7 0 -175 c0 -171 0 -174 25 -198 32 -33 78 -33
110 0 25 24 25 25 25 218 l0 193 35 17 c19 9 55 35 80 58 l45 42 0 -1252 0
-1252 25 -24 24 -25 1231 0 1231 0 24 25 25 24 0 271 0 271 -25 24 c-32 33
-78 33 -110 0 -25 -24 -25 -24 -25 -240 l0 -215 -1120 0 -1120 0 0 1136 c0
1077 1 1136 17 1129 135 -51 307 -16 417 85 l46 43 46 -43 c25 -23 75 -56 112
-73 61 -29 76 -32 162 -32 86 0 101 3 162 32 37 17 87 50 112 73 l46 43 46
-43 c25 -23 75 -56 112 -73 61 -29 76 -32 162 -32 86 0 101 3 162 32 37 17 87
50 112 73 l46 43 46 -43 c110 -101 282 -136 417 -85 16 7 17 -35 17 -784 l0
-792 25 -24 c32 -33 78 -33 110 0 l25 24 0 852 0 852 43 -39 c23 -22 59 -50
80 -63 l37 -23 0 -1589 0 -1590 -25 -24 -24 -25 -1391 0 -1391 0 -24 25 -25
24 0 1271 0 1271 -25 24 c-15 16 -36 25 -55 25 -19 0 -40 -9 -55 -25 l-25 -24
0 -1272 c0 -969 3 -1281 12 -1313 16 -55 99 -138 154 -154 32 -9 370 -12 1436
-12 1577 0 1453 -6 1531 80 24 26 49 66 55 88 9 30 12 427 12 1615 l0 1575 55
7 c75 9 183 65 235 121 23 25 56 75 73 112 30 63 32 75 35 208 l4 141 -201
240 -201 241 0 82 c0 107 -14 151 -67 210 -78 87 47 80 -1537 79 -991 -1
-1411 -4 -1436 -12z m2855 -172 c21 -20 25 -34 25 -80 l0 -55 -1440 0 -1440 0
0 55 c0 46 4 60 25 80 l24 25 1391 0 1391 0 24 -25z m-2605 -367 c-22 -40 -62
-112 -88 -160 l-47 -88 -213 0 -213 0 133 160 133 159 168 1 168 0 -41 -72z
m575 60 c-2 -7 -20 -71 -40 -143 -20 -71 -38 -138 -41 -147 -5 -16 -24 -18
-226 -18 -121 0 -218 4 -216 8 2 5 41 77 87 160 l84 152 178 0 c138 0 177 -3
174 -12z m535 -148 l0 -160 -225 0 c-124 0 -225 3 -225 7 0 4 19 76 42 160
l42 153 183 0 183 0 0 -160z m568 7 c23 -84 42 -156 42 -160 0 -4 -101 -7
-225 -7 l-225 0 0 160 0 160 183 0 183 0 42 -153z m563 1 c46 -83 86 -155 87
-160 2 -4 -95 -8 -216 -8 -202 0 -221 2 -226 18 -3 9 -21 76 -41 147 -20 72
-38 136 -40 143 -3 9 36 12 174 12 l178 0 84 -152z m567 -9 l133 -159 -213 0
-213 0 -47 88 c-26 48 -66 120 -88 160 l-41 72 168 -1 168 0 133 -160z m-2978
-375 c0 -31 -5 -75 -12 -98 -16 -55 -99 -138 -154 -154 -94 -28 -169 -8 -239
63 -57 56 -75 102 -75 189 l0 56 240 0 240 0 0 -56z m640 0 c0 -31 -5 -75 -12
-98 -16 -55 -99 -138 -154 -154 -94 -28 -169 -8 -239 63 -57 56 -75 102 -75
189 l0 56 240 0 240 0 0 -56z m640 0 c0 -31 -5 -75 -12 -98 -16 -55 -99 -138
-154 -154 -94 -28 -169 -8 -239 63 -57 56 -75 102 -75 189 l0 56 240 0 240 0
0 -56z m640 0 c0 -87 -18 -133 -75 -189 -51 -52 -102 -75 -165 -75 -63 0 -114
23 -165 75 -57 56 -75 102 -75 189 l0 56 240 0 240 0 0 -56z m640 0 c0 -87
-18 -133 -75 -189 -51 -52 -102 -75 -165 -75 -63 0 -114 23 -165 75 -57 56
-75 102 -75 189 l0 56 240 0 240 0 0 -56z m640 0 c0 -87 -18 -133 -75 -189
-51 -52 -102 -75 -165 -75 -63 0 -114 23 -165 75 -57 56 -75 102 -75 189 l0
56 240 0 240 0 0 -56z"/>
<path d="M1706 3177 c-34 -34 -34 -80 -1 -112 21 -22 33 -25 99 -25 87 0 121
-12 135 -49 6 -14 40 -195 76 -401 37 -206 73 -385 81 -397 8 -13 24 -25 37
-28 12 -3 229 -5 482 -3 l460 3 44 25 c24 14 57 41 73 61 31 39 248 596 248
637 0 13 -11 34 -25 47 l-24 25 -639 0 -639 0 -16 58 c-19 68 -63 124 -120
154 -33 17 -65 23 -144 26 -98 4 -103 3 -127 -21z m1534 -384 c0 -25 -161
-431 -178 -450 l-21 -23 -408 2 -408 3 -37 205 c-20 113 -40 220 -43 238 l-6
32 551 0 c302 0 550 -3 550 -7z"/>
<path d="M2240 2067 c-49 -16 -133 -102 -148 -153 -28 -94 -8 -169 63 -239 70
-71 145 -91 239 -63 55 16 138 99 154 154 28 94 8 169 -63 239 -70 71 -152 91
-245 62z m135 -172 c50 -49 15 -135 -55 -135 -19 0 -40 9 -55 25 -16 15 -25
36 -25 55 0 19 9 40 25 55 15 16 36 25 55 25 19 0 40 -9 55 -25z"/>
<path d="M2880 2067 c-49 -16 -133 -102 -148 -153 -28 -94 -8 -169 63 -239
101 -102 229 -102 330 0 98 97 101 222 8 325 -65 72 -158 97 -253 67z m135
-172 c50 -49 15 -135 -55 -135 -41 0 -80 39 -80 80 0 41 39 80 80 80 19 0 40
-9 55 -25z"/>
<path d="M2480 947 c-49 -16 -133 -102 -148 -153 -28 -94 -8 -169 63 -239 102
-103 243 -101 338 5 93 103 90 228 -8 325 -70 71 -152 91 -245 62z m135 -172
c50 -49 15 -135 -55 -135 -19 0 -40 9 -55 25 -16 15 -25 36 -25 55 0 19 9 40
25 55 15 16 36 25 55 25 19 0 40 -9 55 -25z"/>
</g>
</svg>
